<svg xmlns="http://www.w3.org/2000/svg" version="1.1" xmlns:xlink="http://www.w3.org/1999/xlink" width="1500" height="164" viewBox="0 0 1500 164"><svg xml:space="preserve" width="1500" height="164" data-version="2" data-id="lg_TNFscB4RKvZy8Y60YI" viewBox="0 0 559 164" x="0" y="0"><rect width="100%" height="100%" fill="transparent"></rect><path fill="#83ff78" d="M229.96 141.845h-25.34v-3.98l3.62-1.09q3.44-1.08 4.71-3.53 1.27-2.44 1.27-6.42v-89.6q0-3.62-.91-5.88-.9-2.26-4.52-3.53l-4.17-1.63v-3.98h34.57l34.03 88.51 32.04-88.51h35.29v3.98l-2.89.91q-3.44 1.08-4.71 3.34-1.26 2.27-1.26 5.89-.19 10.49-.19 20.9v49.51q0 10.49.19 20.81 0 3.8.9 5.79.91 1.99 4.34 3.26l3.62 1.27v3.98h-43.98v-3.98l3.98-1.27q3.44-1.27 4.26-3.35.81-2.08.81-5.7v-39.28l.36-48.5-36.92 102.08h-10.14l-38.91-101 .72 41.27v44.89q0 3.98 1.09 6.33 1.08 2.36 4.52 3.26l3.62 1.27z"></path><rect width="135.93" height="119.64" x="-67.97" y="-59.82" fill="none" rx="0" ry="0" transform="translate(273.08 82.53)"></rect><path fill="#83ff78" d="M369.51 42.295q-5.97 0-10.13-3.8-4.16-3.8-4.16-9.59 0-5.98 4.16-9.69 4.16-3.71 10.13-3.71 5.98 0 10.14 3.71t4.16 9.69q0 5.79-4.16 9.59t-10.14 3.8m20.64 99.55H348.7v-3.44l2.71-.72q3.62-1.09 4.89-3.26 1.27-2.17 1.45-5.79v-43.71q0-4.8-.18-9.87 0-3.62-1.36-5.7t-4.98-2.81l-2.53-.54v-3.26l31.67-10.5 2.18 2-.55 25.7v48.87q0 3.62 1.36 5.79t4.8 3.26l1.99.54z"></path><rect width="41.45" height="126.34" x="-20.73" y="-63.17" fill="none" rx="0" ry="0" transform="translate(369.93 79.17)"></rect><path fill="#83ff78" d="M478.84 141.845h-55.93v-3.8l7.24-1.45q7.6-1.63 7.6-8.87v-74.75q0-12.67-.18-25.34h-14.3q-5.79 0-8.51 3.08-2.71 3.07-5.43 8.68l-6.33 13.4h-5.07l.91-30.59h103.89l.91 30.59h-5.07l-6.34-13.4q-2.71-5.61-5.43-8.68-2.71-3.08-8.5-3.08h-14.48v100.09q0 7.42 7.6 8.87l7.42 1.45z"></path><rect width="105.71" height="119.64" x="-52.85" y="-59.82" fill="none" rx="0" ry="0" transform="translate(451.29 82.53)"></rect><path fill="#83ff78" d="M532.05 42.295q-5.97 0-10.13-3.8-4.17-3.8-4.17-9.59 0-5.98 4.17-9.69 4.16-3.71 10.13-3.71 5.98 0 10.14 3.71t4.16 9.69q0 5.79-4.16 9.59t-10.14 3.8m20.64 99.55h-41.45v-3.44l2.71-.72q3.62-1.09 4.89-3.26 1.27-2.17 1.45-5.79v-43.71q0-4.8-.18-9.87 0-3.62-1.36-5.7t-4.98-2.81l-2.53-.54v-3.26l31.67-10.5 2.17 2-.54 25.7v48.87q0 3.62 1.36 5.79t4.8 3.26l1.99.54z"></path><rect width="41.45" height="126.34" x="-20.73" y="-63.17" fill="none" rx="0" ry="0" transform="translate(532.47 79.17)"></rect><path fill="#83ff78" d="M146.198 1.747H24.926C14.048 1.747 5.31 9.951 5.31 20.116v92.202c0 10.165 8.739 18.369 19.617 18.369h12.84v27.286c0 1.605 1.07 3.21 2.676 3.923.713.357 1.248.357 1.962.357 1.07 0 2.14-.357 3.031-.892l40.484-30.674h60.279c10.878 0 19.617-8.204 19.617-18.37v-92.2c0-10.165-8.739-18.369-19.617-18.369M100.9 91.81H90.734V47.937L80.925 91.63H70.403l-9.809-43.515V91.81H50.43V39.733h15.872l9.452 41.019 9.452-41.019H100.9zm19.974 0h-10.878V39.733h10.878z"></path></svg></svg>